<?xml version="1.0" encoding="utf-8"?>
<!-- Generator: Adobe Illustrator 29.6.1, SVG Export Plug-In . SVG Version: 9.03 Build 0)  -->
<svg version="1.0" id="Layer_1" xmlns="http://www.w3.org/2000/svg" xmlns:xlink="http://www.w3.org/1999/xlink" x="0px" y="0px"
	 viewBox="0 0 512 512" style="enable-background:new 0 0 512 512;" xml:space="preserve">
<style type="text/css">
	.st0{fill:#FFFFFF;}
</style>
<path class="st0" d="M487,256c0-6.7-3.8-12.9-9.8-15.9l-74.8-37.4l74.8-37.4c6-3,9.8-9.2,9.8-15.9s-3.8-12.9-9.8-15.9L264,26.9
	c-5-2.5-10.9-2.5-15.9,0L34.8,133.5c-6,3-9.8,9.2-9.8,15.9c0,6.7,3.8,12.9,9.8,15.9l74.8,37.4l-74.8,37.4c-6,3-9.8,9.2-9.8,15.9
	c0,6.7,3.8,12.9,9.8,15.9l74.8,37.4l-74.8,37.4c-6,3-9.8,9.2-9.8,15.9s3.8,12.9,9.8,15.9L248,485.1c2.5,1.2,5.2,1.9,8,1.9
	c2.7,0,5.5-0.6,8-1.9l213.2-106.6c6-3,9.8-9.2,9.8-15.9s-3.8-12.9-9.8-15.9l-74.8-37.4l74.8-37.4C483.2,268.9,487,262.7,487,256
	L487,256z M354.7,293.4C354.7,293.4,354.7,293.4,354.7,293.4L256,342.8l-98.7-49.4h0L82.5,256l66.9-33.5l98.7,49.4
	c2.5,1.2,5.2,1.9,8,1.9s5.5-0.6,8-1.9l98.7-49.4l66.9,33.5L354.7,293.4z"/>
</svg>
