<?xml version="1.0" encoding="utf-8"?>
<!-- Generator: Adobe Illustrator 29.6.1, SVG Export Plug-In . SVG Version: 9.03 Build 0)  -->
<svg version="1.0" id="Layer_1" xmlns="http://www.w3.org/2000/svg" xmlns:xlink="http://www.w3.org/1999/xlink" x="0px" y="0px"
	 viewBox="0 0 512 512" style="enable-background:new 0 0 512 512;" xml:space="preserve">
<style type="text/css">
	.st0{fill:#FFFFFF;}
</style>
<path class="st0" d="M140.5,140.5C140.5,76.8,192.3,25,256,25s115.5,51.8,115.5,115.5S319.7,256,256,256S140.5,204.2,140.5,140.5z
	 M256,272.5c-103.1,0-187.8,77.3-197.2,179.8c-0.8,8.9,2.2,17.8,8.2,24.4c6,6.6,14.5,10.3,23.4,10.3h331.2c8.9,0,17.4-3.8,23.4-10.3
	c6-6.6,9-15.5,8.2-24.4C443.9,349.8,359.1,272.5,256,272.5L256,272.5z"/>
</svg>
