<?xml version="1.0" encoding="utf-8"?>
<!-- Generator: Adobe Illustrator 29.6.1, SVG Export Plug-In . SVG Version: 9.03 Build 0)  -->
<svg version="1.0" id="Layer_1" xmlns="http://www.w3.org/2000/svg" xmlns:xlink="http://www.w3.org/1999/xlink" x="0px" y="0px"
	 viewBox="0 0 512 512" style="enable-background:new 0 0 512 512;" xml:space="preserve">
<style type="text/css">
	.st0{fill:#FFFFFF;}
</style>
<g transform="translate(0,-952.36218)">
	<path class="st0" d="M303.4,981.9c64.2,13.4,118.7,53.4,151.3,107.9h-85.2c-5.4-18.3-12-35.2-19.7-50.3
		C337.3,1015.1,321.6,995,303.4,981.9z M208.6,981.9c-18.1,13-33.8,33.2-46.4,57.7c-7.7,15.1-14.3,32-19.7,50.3H57.3
		C89.9,1035.3,144.4,995.3,208.6,981.9z M267.3,989.7c22.8,5.2,44.9,25.9,62.4,60.1c6.1,12,11.6,25.4,16.2,40h-78.6V989.7z
		 M244.7,989.7v100.2h-78.6c4.7-14.7,10.1-28.1,16.2-40C199.8,1015.6,221.9,994.9,244.7,989.7z M466.5,1112.4
		c11.9,26,19,54.5,20.5,84.6H385.6c-0.7-30-4.3-58.5-10.2-84.6H466.5z M352.1,1112.4c6.2,25.8,10.2,54.4,10.9,84.6h-95.8v-84.6
		H352.1z M244.7,1112.4v84.6H149c0.8-30.2,4.7-58.8,10.9-84.6H244.7z M136.6,1112.4c-5.9,26.2-9.5,54.7-10.2,84.6H25
		c1.4-30.1,8.6-58.6,20.5-84.6H136.6z M487,1219.6c-1.4,30.1-8.6,58.6-20.5,84.6h-91.2c5.9-26.2,9.5-54.7,10.2-84.6H487z
		 M363,1219.6c-0.8,30.3-4.7,58.8-10.9,84.6h-84.8v-84.6H363z M244.7,1219.6v84.6h-84.8c-6.3-25.8-10.2-54.4-10.9-84.6H244.7z
		 M126.4,1219.6c0.7,29.9,4.3,58.5,10.2,84.6H45.5c-11.9-26-19-54.5-20.5-84.6C25,1219.6,126.4,1219.6,126.4,1219.6z M454.7,1326.9
		c-32.6,54.6-87.2,94.6-151.5,107.9c18.2-13.1,34-33.3,46.6-57.8c7.7-15,14.3-31.8,19.7-50.1H454.7z M345.8,1326.9
		c-4.6,14.6-10,28-16,39.9c-17.5,34.2-39.6,55.1-62.4,60.3v-100.2H345.8z M244.7,1326.9V1427c-22.8-5.2-44.9-26.1-62.4-60.3
		c-6.1-11.9-11.4-25.3-16-39.9H244.7z M142.4,1326.9c5.4,18.2,12.1,35,19.7,50.1c12.6,24.5,28.4,44.8,46.6,57.8
		c-64.3-13.4-118.8-53.3-151.5-107.9H142.4z"/>
</g>
</svg>
