<?xml version="1.0" encoding="utf-8"?>
<!-- Generator: Adobe Illustrator 29.6.1, SVG Export Plug-In . SVG Version: 9.03 Build 0)  -->
<svg version="1.0" id="Layer_1" xmlns="http://www.w3.org/2000/svg" xmlns:xlink="http://www.w3.org/1999/xlink" x="0px" y="0px"
	 viewBox="0 0 512 512" style="enable-background:new 0 0 512 512;" xml:space="preserve">
<style type="text/css">
	.st0{fill:#FFFFFF;}
</style>
<g>
	<g>
		<path class="st0" d="M315.6,466.4c0,10.9,9,19.8,20,19.8h79.3c11,0,20-9,20-19.9V280.8c0-5.5,3.2-6.9,7.1-3.1l-2.3-2.2
			c7.9,7.6,20.5,7.2,28-0.7l13.8-14.4c7.6-7.9,7.3-20.5-0.7-28.1L270.4,31.5c-8-7.6-20.8-7.7-28.9,0L31.2,232.3
			c-8,7.6-8.3,20.2-0.7,28.1l13.8,14.4c7.6,7.9,20.2,8.2,28,0.7l-2.3,2.2c3.9-3.8,7.1-2.3,7.1,3.1v185.5c0,11,9,19.9,20,19.9h79.3
			c11,0,20-9,20-19.8V297.4c0-10.9,9-19.8,20-19.8h79.3c11,0,20,9,20,19.8V466.4z"/>
	</g>
</g>
</svg>
